# AST/ASF file generated using VICON BodyLanguage
# -----------------------------------------------
:version 1.10
:name VICON
:units
  mass 1.0
  length 0.45
  angle deg
:documentation
   .ast/.asf automatically generated from VICON data using
   VICON BodyBuilder and BodyLanguage model FoxedUp or BRILLIANT.MOD
:root
   order TX TY TZ RX RY RZ
   axis XYZ
   position 0 0 0  
   orientation 0 0 0 
:bonedata
  begin
     id 1 
     name lhipjoint
     direction 0.625129 -0.738222 0.253461 
     length 2.5165 
     axis 0 0 0  XYZ
  end
  begin
     id 2 
     name lfemur
     direction 0.34202 -0.939693 0  
     length 7.54288  
     axis 0 0 20  XYZ
    dof rx ry rz
    limits (-160.0 20.0)
           (-70.0 70.0)
           (-60.0 70.0)
  end
  begin
     id 3 
     name ltibia
     direction 0.34202 -0.939693 0   
     length 7.71864   
     axis 0 0 20   XYZ
    dof rx
    limits (-10.0 170.0)
  end
  begin
     id 4 
     name lfoot
     direction 0.0772037 -0.212115 0.97419   
     length 2.18429   
     axis -90 7.62852e-016 20   XYZ
    dof rx rz
    limits (-45.0 90.0)
           (-70.0 20.0)
  end
  begin
     id 5 
     name ltoes
     direction 1.53513e-011 -4.21834e-011 1   
     length 1.09718   
     axis -90 7.62852e-016 20   XYZ
    dof rx
    limits (-90.0 20.0)
  end
  begin
     id 6 
     name rhipjoint
     direction -0.621946 -0.740623 0.254285   
     length 2.50835  
     axis 0 0 0  XYZ 
  end
  begin
     id 7 
     name rfemur
     direction -0.34202 -0.939693 0   
     length 7.43366   
     axis 0 0 -20   XYZ
    dof rx ry rz
    limits (-160.0 20.0)
           (-70.0 70.0)
           (-70.0 60.0)
  end
  begin
     id 8 
     name rtibia
     direction -0.34202 -0.939693 0   
     length 7.77122   
     axis 0 0 -20   XYZ
    dof rx
    limits (-10.0 170.0)
 end
 begin
     id 9 
     name rfoot
     direction -0.082694 -0.2272 0.970331   
     length 2.2293  
     axis -90 -7.62852e-016 -20   XYZ
    dof rx rz
    limits (-45.0 90.0)
           (-20.0 70.0)
  end
  begin
     id 10 
     name rtoes
     direction -1.53565e-011 -4.21695e-011 1   
     length 1.1178   
     axis -90 -7.62852e-016 -20   XYZ
    dof rx
    limits (-90.0 20.0)
  end
  begin
     id 11 
     name lowerback
     direction -0.000695208 0.988391 -0.151929   
     length 1.95077   
     axis 0 0 0   XYZ
    dof rx ry rz
    limits (-20.0 45.0)
           (-30.0 30.0)
           (-30.0 30.0)
  end
  begin
     id 12 
     name upperback
     direction -0.00268925 0.999885 -0.0149203   
     length 1.96246   
     axis 0 0 0   XYZ
    dof rx ry rz
    limits (-20.0 45.0)
           (-30.0 30.0)
           (-30.0 30.0)
  end
  begin
     id 13 
     name thorax
     direction -0.000848408 0.998481 0.0550912   
     length 2.00867   
     axis 0 0 0   XYZ
    dof rx ry rz
    limits (-20.0 45.0)
           (-30.0 30.0)
           (-30.0 30.0)
  end
  begin
     id 14 
     name lowerneck
     direction -0.00577709 0.998999 0.0443608   
     length 1.75762   
     axis 0 0 0   XYZ
    dof rx ry rz
    limits (-20.0 45.0)
           (-30.0 30.0)
           (-30.0 30.0)
  end
  begin
     id 15 
     name upperneck
     direction 0.0320945 0.999136 0.0264105   
     length 1.72601   
     axis 0 0 0   XYZ
    dof rx ry rz
    limits (-20.0 45.0)
           (-30.0 30.0)
           (-30.0 30.0)
  end
  begin
     id 16
     name head
     direction 0.0120552 0.999916 0.00480151  
     length 1.79973  
     axis 0 0 0   XYZ
    dof rx ry rz
    limits (-20.0 45.0)
           (-30.0 30.0)
           (-30.0 30.0)
  end
  begin
     id 17 
     name lclavicle
     direction 0.909 0.371533 -0.188897  
     length 3.47956  
     axis 0 0 0   XYZ
    dof ry rz
    limits (-20.0 10.0)
           (0.0 20.0)
  end
  begin
     id 18 
     name lhumerus
     direction 1 -4.48963e-011 -6.48352e-028   
     length 5.52302   
     axis 180 -30 -90   XYZ
    dof rx ry rz
    limits (-60.0 90.0)
           (-90.0 90.0)
           (-90.0 90.0)
  end
  begin
     id 19
     name lradius
     direction 1 -4.48968e-011 -4.78536e-027   
     length 3.58675   
     axis 180 -30 -90   XYZ
    dof rx
    limits (-10.0 170.0)
  end
  begin
     id 20
     name lwrist
     direction 1 -4.48942e-011 -9.9435e-027   
     length 1.79337   
     axis 8.54312e-015 90 90   XYZ
    dof ry
    limits (-180.0 0.0)
 end
  begin
     id 21 
     name lhand
     direction 1 -4.4904e-011 -1.9887e-026   
     length 0.536412   
     axis 1.26896e-014 90 90   XYZ
    dof rx rz
    limits (-90.0 90.0)
           (-45.0 45.0)
  end
  begin
     id 22 
     name lfingers
     direction 1 -4.48893e-011 -3.9774e-026   
     length 0.432469   
     axis 2.53792e-014 90 90   XYZ
    dof rx
    limits (0.0 90.0)
  end
  begin
     id 23
     name lthumb
     direction 0.707107 -6.34934e-011 0.707107   
     length 0.620942   
     axis -90 45 2.85299e-015   XYZ
    dof rx rz
    limits (-45.0 45.0)
           (-45.0 45.0)
  end
  begin
     id 24 
     name rclavicle
     direction -0.89595 0.416672 -0.153813   
     length 3.44099  
     axis 0 0 0   XYZ 
    dof ry rz
    limits (-10.0 20.0)
           (-20.0 0.0)
  end
  begin
     id 25 
     name rhumerus
     direction -1 -4.48952e-011 5.57804e-028  
     length 5.8478   
     axis 180 30 90   XYZ
    dof rx ry rz
    limits (-90.0 60.0)
           (-90.0 90.0)
           (-90.0 90.0)
  end
  begin
     id 26 
     name rradius
     direction -1 -4.48967e-011 -7.93646e-027   
     length 3.62717   
     axis 180 30 90   XYZ
    dof rx
    limits (-10.0 170.0)
  end
  begin
     id 27 
     name rwrist
     direction -1 -4.49008e-011 -9.9435e-027   
     length 1.81359   
     axis 8.54312e-015 -90 -90   XYZ
    dof ry
    limits (-180.0 0.0)
  end
  begin
     id 28
     name rhand
     direction -1 -4.48812e-011 -1.9887e-026   
     length 0.650516   
     axis 1.26896e-014 -90 -90   XYZ
    dof rx rz
    limits (-90.0 90.0)
           (-45.0 45.0)
  end
  begin
     id 29
     name rfingers
     direction -1 -4.49228e-011 -3.9774e-026   
     length 0.524463   
     axis 2.53792e-014 -90 -90   XYZ
    dof rx
    limits (0.0 90.0)
  end
  begin
     id 30
     name rthumb
     direction -0.707107 -6.34912e-011 0.707107   
     length 0.753027   
     axis -90 -45 -2.85299e-015   XYZ
    dof rx rz
    limits (-45.0 45.0)
           (-45.0 45.0)
  end
:hierarchy
  begin
    root lhipjoint rhipjoint lowerback
    lhipjoint lfemur
    lfemur ltibia
    ltibia lfoot
    lfoot ltoes
    rhipjoint rfemur
    rfemur rtibia
    rtibia rfoot
    rfoot rtoes
    lowerback upperback
    upperback thorax
    thorax lowerneck lclavicle rclavicle
    lowerneck upperneck
    upperneck head
    lclavicle lhumerus
    lhumerus lradius
    lradius lwrist
    lwrist lhand lthumb
    lhand lfingers
    rclavicle rhumerus
    rhumerus rradius
    rradius rwrist
    rwrist rhand rthumb
    rhand rfingers
  end

#!OML:ASF F:\VICON\USERDATA\INSTALL\rory3\rory3.ASF
:FULLY-SPECIFIED
:DEGREES
900
root 12.8249 17.8691 -2.07795 -187.03 46.3159 -183.602
lowerback 10.4174 -5.73148 -0.533271
upperback 2.02366 -7.39559 2.63369
thorax -3.26889 -3.59373 3.97232
lowerneck 1.78021 -11.8488 4.09157
upperneck 28.67 -14.478 -2.23171
head 8.16745 -5.92086 -2.15491
rclavicle -3.57812e-015 4.77083e-015
rhumerus -40.4452 -17.2525 -65.2295
rradius 31.9798
rwrist 13.8582
rhand -24.8468 18.571
rfingers 7.12502
rthumb 1.65953 -11.4023
lclavicle -3.57812e-015 4.77083e-015
lhumerus -22.6208 1.14681 81.1745
lradius 10.1978
lwrist 2.3801
lhand -35.5906 25.0714
lfingers 7.12502
lthumb -8.7147 54.8715
rfemur -16.534 27.9861 11.0074
rtibia 36.281
rfoot -11.8631 5.71645
rtoes -5.56935
lfemur -12.3723 -5.92693 -17.5312
ltibia 22.8687
lfoot -1.73395 1.86213
ltoes -17.3827
901
root 12.7737 17.9119 -2.18581 -189.03 47.7389 -185.616
lowerback 10.3382 -5.32332 -1.51056
upperback 2.33762 -6.98568 2.19308
thorax -2.86375 -3.39811 3.97312
lowerneck 1.80125 -11.9922 3.97049
upperneck 28.5495 -14.7202 -2.0805
head 8.13972 -6.04714 -2.09565
rclavicle 7.86193e-014 1.11319e-014
rhumerus -41.2537 -19.4428 -63.9357
rradius 31.6812
rwrist 15.235
rhand -26.398 18.1876
rfingers 7.12502
rthumb 0.161352 -11.7921
lclavicle 7.86193e-014 1.11319e-014
lhumerus -22.1415 0.82667 81.1066
lradius 10.5895
lwrist 2.00321
lhand -35.78 25.2202
lfingers 7.12502
lthumb -8.89746 55.0126
rfemur -16.632 28.2377 9.56567
rtibia 36.714
rfoot -11.6387 6.33873
rtoes -6.15116
lfemur -11.2514 -6.02248 -19.3263
ltibia 22.7022
lfoot -2.02206 3.52366
ltoes -16.9792
902
root 12.7054 17.8854 -2.22835 -189.444 48.1934 -186.107
lowerback 10.7961 -5.37549 -2.37653
upperback 2.25544 -7.13989 2.4507
thorax -3.04741 -3.46417 4.78717
lowerneck 1.98486 -11.9492 3.57548
upperneck 28.3719 -14.6393 -2.09665
head 8.07755 -6.06801 -2.02172
rclavicle 1.59028e-015 3.18055e-015
rhumerus -41.9113 -21.6089 -62.4303
rradius 31.2868
rwrist 16.5795
rhand -26.7904 18.8757
rfingers 7.12502
rthumb -0.217687 -11.104
lclavicle 1.59028e-015 3.18055e-015
lhumerus -22.053 1.1748 81.3611
lradius 11.3616
lwrist 1.81263
lhand -36.0779 24.7623
lfingers 7.12502
lthumb -9.18497 54.5422
rfemur -16.5883 28.4171 9.00231
rtibia 37.0851
rfoot -11.2392 5.85681
rtoes -5.31627
lfemur -11.2673 -5.16566 -19.8439
ltibia 22.7908
lfoot -2.05739 3.18566
ltoes -18.116
903
root 12.6423 17.8528 -2.29748 -189.141 48.8419 -185.843
lowerback 10.686 -5.55541 -2.31612
upperback 2.2654 -7.35528 2.71408
thorax -2.92804 -3.57377 5.03746
lowerneck 2.05254 -12.001 3.58267
upperneck 28.1565 -14.6793 -2.35628
head 7.96602 -6.13482 -2.09457
rclavicle -1.02374e-013 2.8625e-014
rhumerus -42.0332 -20.4124 -62.3151
rradius 31.2472
rwrist 14.4021
rhand -26.7076 18.2685
rfingers 7.12502
rthumb -0.137699 -11.7112
lclavicle -1.02374e-013 2.8625e-014
lhumerus -21.9388 1.59502 81.2944
lradius 12.1237
lwrist 1.68852
lhand -35.8127 23.9381
lfingers 7.12502
lthumb -8.92903 53.7291
rfemur -16.5502 28.7148 8.84559
rtibia 37.2752
rfoot -10.8914 5.56656
rtoes -3.4372
lfemur -11.7379 -4.80892 -19.8331
ltibia 23.5725
lfoot -2.4423 3.48098
ltoes -18.8638
904
root 12.5642 17.8464 -2.31976 -188.02 49.4123 -184.76
lowerback 10.8335 -5.73597 -1.81664
upperback 2.16582 -7.51246 3.10255
thorax -3.1087 -3.64432 5.20945
lowerneck 2.10444 -12.0919 3.42842
upperneck 28.0044 -14.8036 -2.42474
head 7.90785 -6.23417 -2.0911
rclavicle -9.93923e-015 5.56597e-014
rhumerus -42.2434 -19.8607 -62.3141
rradius 31.0874
rwrist 13.1337
rhand -27.2354 19.0491
rfingers 7.12502
rthumb -0.647445 -10.9297
lclavicle -9.93923e-015 5.56597e-014
lhumerus -21.7038 1.73668 81.0934
lradius 12.8041
lwrist 1.62943
lhand -35.8486 23.6164
lfingers 7.12502
lthumb -8.96375 53.406
rfemur -17.2827 28.8683 9.2692
rtibia 37.5566
rfoot -10.1907 5.34063
rtoes -1.74562
lfemur -12.646 -4.61126 -19.112
ltibia 24.4208
lfoot -2.64902 3.68512
ltoes -19.2734
905
root 12.4795 17.8483 -2.34427 -185.124 50.8705 -181.813
lowerback 10.58 -5.63851 0.353033
upperback 2.057 -7.08928 3.66376
thorax -3.31935 -3.43023 4.53445
lowerneck 2.24214 -12.243 3.05052
upperneck 27.9518 -15.037 -2.21749
head 7.91128 -6.37018 -1.97187
rclavicle 6.22196e-014 -3.18055e-015
rhumerus -42.9097 -20.878 -61.5225
rradius 30.7059
rwrist 13.36
rhand -27.9465 20.0516
rfingers 7.12502
rthumb -1.33428 -9.92402
lclavicle 6.22196e-014 -3.18055e-015
lhumerus -21.4248 1.37925 80.9785
lradius 13.7038
lwrist 2.11053
lhand -36.0198 23.7115
lfingers 7.12502
lthumb -9.1289 53.4939
rfemur -18.9915 29.675 10.6668
rtibia 37.8674
rfoot -8.93941 5.31032
rtoes 1.21998
lfemur -13.8654 -4.43669 -16.9492
ltibia 25.1228
lfoot -2.63288 4.58241
ltoes -18.5528
906
root 12.4167 17.8732 -2.40665 -186.565 51.2824 -183.614
lowerback 10.272 -5.65255 -0.219939
upperback 2.15941 -7.22657 3.12808
thorax -3.03278 -3.51174 4.26578
lowerneck 2.248 -12.3629 2.89001
upperneck 28.1736 -15.2313 -2.04748
head 8.01291 -6.45294 -1.9139
rclavicle 7.37491e-014 -6.04305e-014
rhumerus -43.7131 -22.715 -60.5276
rradius 30.1333
rwrist 14.5866
rhand -28.2314 17.4927
rfingers 7.12502
rthumb -1.60936 -12.481
lclavicle 7.37491e-014 -6.04305e-014
lhumerus -21.3159 1.06326 80.7291
lradius 14.8061
lwrist 2.62319
lhand -36.451 23.2823
lfingers 7.12502
lthumb -9.54497 53.0461
rfemur -19.3606 28.9903 9.42554
rtibia 38.2844
rfoot -8.50574 5.48109
rtoes -0.132367
lfemur -13.7008 -4.26162 -18.4776
ltibia 25.2123
lfoot -2.8264 4.92088
ltoes -17.0251
907
root 12.3481 17.8889 -2.44852 -186.144 51.8556 -183.281
lowerback 10.2372 -5.8488 0.0610703
upperback 2.09397 -7.45623 3.15563
thorax -3.09798 -3.6263 4.16833
lowerneck 2.46339 -12.291 3.20233
upperneck 28.171 -15.0614 -2.38722
head 7.92175 -6.37784 -2.0421
rclavicle -3.69739e-014 -2.22639e-014
rhumerus -44.2676 -23.2083 -60.1159
rradius 29.7309
rwrist 15.0886
rhand -28.0811 16.0652
rfingers 7.12502
rthumb -1.46424 -13.9095
lclavicle -3.69739e-014 -2.22639e-014
lhumerus -21.521 1.25426 80.4806
lradius 16.0227
lwrist 3.15532
lhand -36.6064 23.5384
lfingers 7.12502
lthumb -9.69491 53.2953
rfemur -20.0253 28.773 9.52431
rtibia 38.6843
rfoot -7.82341 5.32942
rtoes 2.65246
lfemur -13.8656 -3.944 -18.4214
ltibia 25.1633
lfoot -2.76137 5.25124
ltoes -16.9843
